<?xml version="1.0" encoding="utf-8"?>
<!-- Generator: Adobe Illustrator 16.0.0, SVG Export Plug-In . SVG Version: 6.00 Build 0)  -->
<!DOCTYPE svg PUBLIC "-//W3C//DTD SVG 1.1//EN" "http://www.w3.org/Graphics/SVG/1.1/DTD/svg11.dtd">
<svg version="1.1" id="Layer_1" xmlns="http://www.w3.org/2000/svg" xmlns:xlink="http://www.w3.org/1999/xlink" x="0px" y="0px"
	 width="212px" height="132px" viewBox="0 0 212 132" enable-background="new 0 0 212 132" xml:space="preserve">
<rect fill="#F4F6FA" width="210.888" height="132"/>
<g>
	<defs>
		<rect id="SVGID_1_" x="53" y="59" width="109" height="15"/>
	</defs>
	<clipPath id="SVGID_2_">
		<use xlink:href="#SVGID_1_"  overflow="visible"/>
	</clipPath>
	<g clip-path="url(#SVGID_2_)">
		<path fill="#D7DCE5" d="M66.306,59l-0.018,1.044l-1.298,3.724h-0.156c0-0.957-1.367-0.835-1.367-0.835h-4.62
			c-1.056,0-1.918,0.504-2.514,1.005c-0.528,0.443-0.93,1.017-1.182,1.661C54.521,67.205,53,71.162,53,72.016
			C53,73.791,54.384,74,54.384,74h5.571c1.419,0,2.06-0.957,2.06-0.957l0.122,0.034L62.015,74h5.07v-0.889L72.137,59H66.306z
			 M64.161,65.908c-0.295,0.818-1.869,5.186-1.869,5.186s-0.277,0.871-1.28,0.871h-1.834c0,0-0.917,0.121-0.432-1.549l1.696-4.542
			c0,0,0.519-0.905,1.419-0.905h1.817c0,0,0.778,0.122,0.485,0.939H64.161z"/>
		<path fill="#D7DCE5" d="M142.518,59l-0.019,1.044l-1.298,3.724h-0.156c0-0.957-1.365-0.835-1.365-0.835h-4.621
			c-1.056,0-1.918,0.504-2.514,1.005c-0.527,0.443-0.93,1.017-1.182,1.661c-0.633,1.607-2.152,5.563-2.152,6.418
			c0,1.775,1.385,1.984,1.385,1.984h5.571c1.419,0,2.06-0.957,2.06-0.957l0.121,0.035l-0.121,0.922h5.069v-0.888L148.348,59H142.518
			z M140.371,65.908c-0.294,0.818-1.868,5.186-1.868,5.186s-0.276,0.871-1.28,0.871h-1.834c0,0-0.916,0.121-0.432-1.549l1.695-4.542
			c0,0,0.52-0.905,1.42-0.905h1.816c0,0,0.778,0.122,0.485,0.939H140.371z"/>
		<path fill="#D7DCE5" d="M84.559,62.897l-0.415,2.175v0.488c0,0-0.847-0.592-1.73-0.592h-4.135c0,0-0.969,0.087-1.419,1.201
			c-0.451,1.113-1.748,4.751-1.748,4.751s-0.277,1.046,0.899,1.046s4.343-0.072,4.343-0.072s1.073-0.191,1.574-0.539l-1.401,2.646
			H71.2c0,0-2.18-0.522-1.557-2.628c0.747-2.525,2.18-6.003,2.18-6.003s1.107-2.471,4.257-2.471h8.479L84.559,62.897z"/>
		<path fill="#D7DCE5" d="M86.221,62.897v1.166l-3.08,8.527c0,0-0.364,0.975-0.848,1.409h6.125v-0.853l3.599-10.25L86.221,62.897
			L86.221,62.897z"/>
		<path fill="#D7DCE5" d="M87.086,61.714L88.056,59h5.416l-1.004,2.802L87.086,61.714z"/>
		<path fill="#D7DCE5" d="M124.979,62.897v1.166l-3.08,8.527c0,0-0.363,0.975-0.848,1.409h6.125v-0.853l3.6-10.25L124.979,62.897
			L124.979,62.897z"/>
		<path fill="#D7DCE5" d="M125.844,61.714L126.813,59h5.416l-1.004,2.802L125.844,61.714z"/>
		<path fill="#D7DCE5" d="M89.871,73.912c0,0,0.52-0.296,1.107-1.896c0.588-1.6,2.873-7.953,2.873-7.953v-0.974H98.8
			c0,0,0.069,0.783,0,0.939c0,0,0.969-0.939,2.042-0.939h4.707c0,0,2.474,0.435,1.748,2.714c-0.726,2.279-2.44,7.187-2.44,7.187
			s-0.121,0.695-0.018,0.922h-6.073c0,0,0.588-0.469,1.021-1.67s2.25-6.248,2.25-6.248s0.38-0.87-0.762-0.87h-1.852
			c0,0-0.744,0.104-1.142,1.252c-0.398,1.148-2.301,6.387-2.301,6.387s-0.104,0.852-0.052,1.235L89.871,73.912L89.871,73.912z"/>
		<path fill="#D7DCE5" d="M107.105,71.182l-0.52,2.697h10.243c0,0,2.422-0.069,3.478-2.088c1.055-2.019,1.332-3.377,1.332-3.377
			s0.865-2.087-1.955-2.209h-4.707c-0.369,0-0.646-0.366-0.52-0.713c0.068-0.184,0.241-0.33,0.624-0.33h6.106
			c0,0,1.09,0.331,1.246,0.574l0.485-2.645h-8.911c0,0-3.421,0.117-4.39,2.274c-0.968,2.158-1.234,3.521-1.234,3.521
			s-0.501,1.74,1.714,1.809c2.213,0.07,5.414,0.035,5.414,0.035s0.543,0.223,0.131,0.723c-0.229,0.277-0.578,0.426-0.937,0.425
			l-5.613-0.016c0,0-1.487,0.019-1.989-0.679H107.105z"/>
		<path fill="#D7DCE5" d="M160.27,63.199h-8.668c0,0-2.838,0.157-3.91,2.924c-1.072,2.767-1.903,5.446-1.903,5.446
			s-0.588,2.263,1.765,2.313c2.354,0.053,10.744,0.116,10.744,0.116l1.333-2.587c0,0-1.003,0.566-2.008,0.553
			c-1.003-0.014-5.882,0-5.882,0s-0.848-0.084-0.536-1.145c0.312-1.062,0.397-1.253,0.397-1.253h8.928l1.42-4.072
			c0,0,0.502-2.036-1.678-2.297L160.27,63.199z M156.066,67.445h-3.738c0,0,0.311-0.835,0.744-1.652
			c0.433-0.818,1.158-0.592,2.076-0.592s1.522-0.035,1.522,0.295c0,0.33-0.606,1.949-0.606,1.949H156.066z"/>
	</g>
</g>
</svg>
