<svg width="64" height="64" viewBox="0 0 64 64" fill="none" xmlns="http://www.w3.org/2000/svg">
<path d="M53.3337 32.0003C53.3337 43.7824 43.7824 53.3337 32.0003 53.3337C20.2183 53.3337 10.667 43.7824 10.667 32.0003C10.667 20.2183 20.2183 10.667 32.0003 10.667C43.7824 10.667 53.3337 20.2183 53.3337 32.0003Z" fill="#FCD966"/>
<path d="M53.3337 32.0003C53.3337 43.7824 43.7824 53.3337 32.0003 53.3337C20.2183 53.3337 10.667 43.7824 10.667 32.0003C10.667 20.2183 20.2183 10.667 32.0003 10.667C43.7824 10.667 53.3337 20.2183 53.3337 32.0003Z" fill="url(#paint0_radial_470_13927)" fill-opacity="0.6"/>
<path d="M25.7782 36.8891C25.7782 40.0801 23.1914 42.6669 20.0004 42.6669C16.8095 42.6669 14.2227 40.0801 14.2227 36.8891C14.2227 33.6981 16.8095 31.1113 20.0004 31.1113C23.1914 31.1113 25.7782 33.6981 25.7782 36.8891Z" fill="url(#paint1_radial_470_13927)" fill-opacity="0.3"/>
<path d="M49.7782 36.8891C49.7782 40.0801 47.1914 42.6669 44.0004 42.6669C40.8095 42.6669 38.2227 40.0801 38.2227 36.8891C38.2227 33.6981 40.8095 31.1113 44.0004 31.1113C47.1914 31.1113 49.7782 33.6981 49.7782 36.8891Z" fill="url(#paint2_radial_470_13927)" fill-opacity="0.3"/>
<path d="M27.5558 30.6666C27.5558 31.8939 26.5608 32.8888 25.3336 32.8888C24.1063 32.8888 23.1113 31.8939 23.1113 30.6666C23.1113 29.4393 24.1063 28.4443 25.3336 28.4443C26.5608 28.4443 27.5558 29.4393 27.5558 30.6666Z" fill="#79420E"/>
<path d="M40.8888 30.6666C40.8888 31.8939 39.8939 32.8888 38.6666 32.8888C37.4393 32.8888 36.4443 31.8939 36.4443 30.6666C36.4443 29.4393 37.4393 28.4443 38.6666 28.4443C39.8939 28.4443 40.8888 29.4393 40.8888 30.6666Z" fill="#79420E"/>
<path fill-rule="evenodd" clip-rule="evenodd" d="M27.324 36.6201C27.9585 36.2643 28.7757 36.4657 29.1494 37.07C29.5572 37.7296 30.5955 38.3492 32.0003 38.3492C33.4051 38.3492 34.4434 37.7296 34.8513 37.07C35.2249 36.4657 36.0422 36.2643 36.6767 36.6201C37.3112 36.976 37.5227 37.7543 37.1491 38.3586C36.1669 39.9471 34.146 40.8888 32.0003 40.8888C29.8547 40.8888 27.8337 39.9471 26.8516 38.3586C26.478 37.7543 26.6894 36.976 27.324 36.6201Z" fill="#79420E"/>
<path d="M48.8891 37.7779C48.8891 36.5506 49.884 35.5557 51.1113 35.5557C52.3386 35.5557 53.3336 36.5506 53.3336 37.7779V41.7779V50.6668C53.3336 52.6305 51.7417 54.2223 49.778 54.2223H44.4447C41.4991 54.2223 39.1113 51.8345 39.1113 48.889V44.4446C39.1113 42.9718 40.3052 41.7779 41.778 41.7779H46.2224C47.6952 41.7779 48.8891 40.584 48.8891 39.1112V37.7779Z" fill="#FFECAA"/>
<mask id="mask0_470_13927" style="mask-type:alpha" maskUnits="userSpaceOnUse" x="39" y="35" width="15" height="20">
<path d="M48.8891 37.7779C48.8891 36.5506 49.884 35.5557 51.1113 35.5557C52.3386 35.5557 53.3336 36.5506 53.3336 37.7779V41.7779V50.6668C53.3336 52.6305 51.7417 54.2223 49.778 54.2223H44.4447C41.4991 54.2223 39.1113 51.8345 39.1113 48.889V44.4446C39.1113 42.9718 40.3052 41.7779 41.778 41.7779H46.2224C47.6952 41.7779 48.8891 40.584 48.8891 39.1112V37.7779Z" fill="#FFECAA"/>
</mask>
<g mask="url(#mask0_470_13927)">
<path fill-rule="evenodd" clip-rule="evenodd" d="M38.2227 45.3332C38.2227 44.8423 38.6206 44.4443 39.1115 44.4443L43.556 44.4443C44.0469 44.4443 44.4449 44.8423 44.4449 45.3332C44.4449 45.8241 44.0469 46.2221 43.556 46.2221L39.1115 46.2221C38.6206 46.2221 38.2227 45.8241 38.2227 45.3332Z" fill="#FFDB5C"/>
<path fill-rule="evenodd" clip-rule="evenodd" d="M37.334 48.8889C37.334 48.398 37.732 48 38.2229 48L43.5562 48C44.0471 48 44.4451 48.398 44.4451 48.8889C44.4451 49.3798 44.0471 49.7778 43.5562 49.7778L38.2229 49.7778C37.732 49.7778 37.334 49.3798 37.334 48.8889Z" fill="#FFDB5C"/>
<path fill-rule="evenodd" clip-rule="evenodd" d="M37.334 52.4446C37.334 51.9536 37.732 51.5557 38.2229 51.5557L42.6673 51.5557C43.1582 51.5557 43.5562 51.9536 43.5562 52.4446C43.5562 52.9355 43.1582 53.3334 42.6673 53.3334L38.2229 53.3334C37.732 53.3334 37.334 52.9355 37.334 52.4446Z" fill="#FFDB5C"/>
</g>
<defs>
<radialGradient id="paint0_radial_470_13927" cx="0" cy="0" r="1" gradientUnits="userSpaceOnUse" gradientTransform="translate(47.2384 48.3813) rotate(161.996) scale(16.0227)">
<stop stop-color="#CE6300" stop-opacity="0"/>
<stop offset="0.625" stop-color="#FCD966"/>
</radialGradient>
<radialGradient id="paint1_radial_470_13927" cx="0" cy="0" r="1" gradientUnits="userSpaceOnUse" gradientTransform="translate(20.0004 36.8891) rotate(90) scale(5.77778)">
<stop stop-color="#FF4B56" stop-opacity="0.7"/>
<stop offset="0.375" stop-color="#FE925E" stop-opacity="0.85"/>
<stop offset="0.615" stop-color="#FDB662" stop-opacity="0.925"/>
<stop offset="0.785" stop-color="#FCC764" stop-opacity="0.9625"/>
<stop offset="0.905" stop-color="#FCD065" stop-opacity="0.98125"/>
<stop offset="0.975" stop-color="#FCD565" stop-opacity="0.990625"/>
<stop offset="0.9875" stop-color="#FCD766" stop-opacity="0.995313"/>
<stop offset="0.99375" stop-color="#FCD866" stop-opacity="0.997656"/>
<stop offset="0.996875" stop-color="#FCD866" stop-opacity="0.998828"/>
<stop offset="0.998438" stop-color="#FCD966" stop-opacity="0.999414"/>
<stop offset="0.999219" stop-color="#FCD966" stop-opacity="0.999707"/>
<stop offset="0.999609" stop-color="#FCD966" stop-opacity="0.999853"/>
<stop offset="0.999805" stop-color="#FCD966" stop-opacity="0.999927"/>
<stop offset="0.999902" stop-color="#FCD966" stop-opacity="0.999963"/>
<stop offset="0.999951" stop-color="#FCD966" stop-opacity="0.999982"/>
<stop offset="0.999976" stop-color="#FCD966" stop-opacity="0.999991"/>
<stop offset="0.999988" stop-color="#FCD966" stop-opacity="0.999995"/>
<stop offset="0.999994" stop-color="#FCD966" stop-opacity="0.999998"/>
<stop offset="1" stop-color="#FCD966"/>
</radialGradient>
<radialGradient id="paint2_radial_470_13927" cx="0" cy="0" r="1" gradientUnits="userSpaceOnUse" gradientTransform="translate(44.0004 36.8891) rotate(90) scale(5.77778)">
<stop stop-color="#FF4B56" stop-opacity="0.7"/>
<stop offset="0.375" stop-color="#FE925E" stop-opacity="0.85"/>
<stop offset="0.615" stop-color="#FDB662" stop-opacity="0.925"/>
<stop offset="0.785" stop-color="#FCC764" stop-opacity="0.9625"/>
<stop offset="0.905" stop-color="#FCD065" stop-opacity="0.98125"/>
<stop offset="0.975" stop-color="#FCD565" stop-opacity="0.990625"/>
<stop offset="0.9875" stop-color="#FCD766" stop-opacity="0.995313"/>
<stop offset="0.99375" stop-color="#FCD866" stop-opacity="0.997656"/>
<stop offset="0.996875" stop-color="#FCD866" stop-opacity="0.998828"/>
<stop offset="0.998438" stop-color="#FCD966" stop-opacity="0.999414"/>
<stop offset="0.999219" stop-color="#FCD966" stop-opacity="0.999707"/>
<stop offset="0.999609" stop-color="#FCD966" stop-opacity="0.999853"/>
<stop offset="0.999805" stop-color="#FCD966" stop-opacity="0.999927"/>
<stop offset="0.999902" stop-color="#FCD966" stop-opacity="0.999963"/>
<stop offset="0.999951" stop-color="#FCD966" stop-opacity="0.999982"/>
<stop offset="0.999976" stop-color="#FCD966" stop-opacity="0.999991"/>
<stop offset="0.999988" stop-color="#FCD966" stop-opacity="0.999995"/>
<stop offset="0.999994" stop-color="#FCD966" stop-opacity="0.999998"/>
<stop offset="1" stop-color="#FCD966"/>
</radialGradient>
</defs>
</svg>
