<svg width="64" height="64" viewBox="0 0 64 64" fill="none" xmlns="http://www.w3.org/2000/svg">
<path d="M53.3337 32.0003C53.3337 43.7824 43.7824 53.3337 32.0003 53.3337C20.2183 53.3337 10.667 43.7824 10.667 32.0003C10.667 20.2183 20.2183 10.667 32.0003 10.667C43.7824 10.667 53.3337 20.2183 53.3337 32.0003Z" fill="#FCD966"/>
<path fill-rule="evenodd" clip-rule="evenodd" d="M26.5438 33.5664C27.2841 33.9934 28.2375 33.7517 28.6735 33.0265C29.1493 32.235 30.3606 31.4915 31.9996 31.4915C33.6385 31.4915 34.8499 32.235 35.3257 33.0265C35.7616 33.7517 36.7151 33.9934 37.4553 33.5664C38.1956 33.1394 38.4423 32.2053 38.0064 31.4802C36.8606 29.574 34.5028 28.444 31.9996 28.444C29.4963 28.444 27.1386 29.574 25.9927 31.4802C25.5568 32.2053 25.8035 33.1394 26.5438 33.5664Z" fill="#79420E"/>
<path d="M17.2418 32.882C17.3644 32.0922 17.7267 31.3592 18.2796 30.782L20.4865 28.4785C20.7929 28.1587 21.3316 28.3031 21.4371 28.7332L22.1965 31.8316C22.3868 32.6078 22.334 33.4238 22.0453 34.1691L21.9601 34.3892C21.862 34.6424 21.7229 34.8778 21.5484 35.0858L-nan -nanL21.5484 35.0858C20.1968 36.6973 17.5785 35.9957 17.2138 33.9244L-nan -nanL17.2138 33.9244C17.1667 33.6569 17.1639 33.3836 17.2056 33.1153L17.2418 32.882Z" fill="#8BC7FF"/>
<path d="M13.1783 43.0237C13.3451 42.2421 13.748 41.5305 14.3325 40.9854L16.6654 38.8096C16.9893 38.5076 17.5191 38.682 17.6002 39.1174L18.1842 42.2535C18.3306 43.0393 18.232 43.851 17.9018 44.5789L17.8043 44.7938C17.6922 45.0411 17.5401 45.2683 17.3542 45.4662L-nan -nanL17.3542 45.4662C15.9141 46.9991 13.3394 46.1514 13.0917 44.0628L-nan -nanL13.0917 44.0628C13.0597 43.7932 13.0723 43.5201 13.129 43.2546L13.1783 43.0237Z" fill="#8BC7FF"/>
<path d="M46.7582 32.6105C46.6356 31.8207 46.2733 31.0877 45.7204 30.5105L43.5135 28.207C43.2071 27.8872 42.6684 28.0316 42.5629 28.4617L41.8035 31.5601C41.6132 32.3364 41.666 33.1523 41.9547 33.8976L42.0399 34.1177C42.138 34.3709 42.2771 34.6063 42.4516 34.8143L-nan -nanL42.4516 34.8143C43.8032 36.4258 46.4215 35.7242 46.7862 33.6529L-nan -nanL46.7862 33.6529C46.8333 33.3854 46.8361 33.1121 46.7944 32.8438L46.7582 32.6105Z" fill="#8BC7FF"/>
<path d="M50.8217 42.7522C50.6549 41.9706 50.252 41.2591 49.6675 40.7139L47.3346 38.5381C47.0107 38.2361 46.4809 38.4105 46.3998 38.8459L45.8158 41.9821C45.6694 42.7678 45.768 43.5795 46.0982 44.3074L46.1957 44.5224C46.3078 44.7696 46.4599 44.9968 46.6458 45.1947L-nan -nanL46.6458 45.1947C48.0859 46.7276 50.6606 45.88 50.9083 43.7914L-nan -nanL50.9083 43.7914C50.9403 43.5217 50.9277 43.2486 50.871 42.9831L50.8217 42.7522Z" fill="#8BC7FF"/>
<path d="M27.5558 23.5552C27.5558 24.7825 26.5608 25.7775 25.3336 25.7775C24.1063 25.7775 23.1113 24.7825 23.1113 23.5552C23.1113 22.3279 24.1063 21.333 25.3336 21.333C26.5608 21.333 27.5558 22.3279 27.5558 23.5552Z" fill="#79420E"/>
<path d="M40.8888 23.5552C40.8888 24.7825 39.8939 25.7775 38.6666 25.7775C37.4393 25.7775 36.4443 24.7825 36.4443 23.5552C36.4443 22.3279 37.4393 21.333 38.6666 21.333C39.8939 21.333 40.8888 22.3279 40.8888 23.5552Z" fill="#79420E"/>
</svg>
