<?xml version="1.0" encoding="utf-8"?>
<!-- Generator: Adobe Illustrator 16.0.0, SVG Export Plug-In . SVG Version: 6.00 Build 0)  -->
<!DOCTYPE svg PUBLIC "-//W3C//DTD SVG 1.1//EN" "http://www.w3.org/Graphics/SVG/1.1/DTD/svg11.dtd">
<svg version="1.1" id="Layer_1" xmlns="http://www.w3.org/2000/svg" xmlns:xlink="http://www.w3.org/1999/xlink" x="0px" y="0px"
	 width="33px" height="33px" viewBox="0 0 33 33" enable-background="new 0 0 33 33" xml:space="preserve">
<path fill="none" stroke="#315AE9" stroke-width="2" stroke-linecap="round" d="M17.805,23.941c0-0.332-0.27-0.6-0.601-0.6h-4.613
	c-4.983,0-9.022-4.082-9.022-9.117c0-5.034,4.04-9.116,9.022-9.116h7.819c4.982,0,9.022,4.082,9.022,9.116c0,0,0,4.769-5.149,9.537
	c-1.068,0.91-4.381,3.909-5.811,5.207c-0.258,0.233-0.668,0.05-0.668-0.298V23.941z"/>
<ellipse fill="#475067" stroke="#315AE9" stroke-width="1.2" stroke-linecap="round" cx="11.104" cy="14.015" rx="0.685" ry="0.685"/>
<circle fill="#475067" stroke="#315AE9" stroke-width="1.2" stroke-linecap="round" cx="16.583" cy="14.015" r="0.685"/>
<ellipse fill="#475067" stroke="#315AE9" stroke-width="1.2" stroke-linecap="round" cx="22.064" cy="14.015" rx="0.685" ry="0.685"/>
</svg>
