<svg width="33" height="33" viewBox="0 0 33 33" fill="none" xmlns="http://www.w3.org/2000/svg">
<g clip-path="url(#clip0_619_94334)">
<path d="M32.5 25.38C32.5 29.3128 29.3122 32.5 25.381 32.5H7.61898C3.68616 32.5 0.5 29.3128 0.5 25.38V7.62C0.5 3.6872 3.68777 0.5 7.61898 0.5H25.3794C29.3122 0.5 32.4984 3.6872 32.4984 7.62V25.38H32.5Z" fill="#FAE100"/>
<path d="M16.4999 5.98633C10.1437 5.98633 4.9895 10.0359 4.9895 15.0343C4.9895 18.2871 7.17315 21.1367 10.4494 22.7319C10.208 23.6247 9.57725 25.9687 9.45174 26.4695C9.29565 27.0919 9.68024 27.0839 9.93288 26.9175C10.1308 26.7863 13.0869 24.7879 14.3613 23.9255C15.0533 24.0279 15.7677 24.0823 16.4983 24.0823C22.8545 24.0823 28.0087 20.0327 28.0087 15.0359C28.0087 10.0391 22.8561 5.98793 16.4983 5.98793" fill="#371C1D"/>
<path d="M8.47028 13.3679H9.65463C9.65463 13.3679 9.66267 16.6031 9.65463 17.3567C9.65624 17.9071 10.8873 17.9151 10.8856 17.3647L10.8905 13.4095C10.8905 13.4095 11.2879 13.4127 12.07 13.4127C12.807 13.4127 12.807 12.2607 12.07 12.2607C11.2397 12.2607 8.46706 12.2383 8.46706 12.2383C7.7719 12.2383 7.7735 13.3679 8.46706 13.3679" fill="#F8E049"/>
<mask id="mask0_619_94334" style="mask-type:luminance" maskUnits="userSpaceOnUse" x="7" y="12" width="6" height="6">
<path d="M8.47028 13.3679H9.65463C9.65463 13.3679 9.66267 16.6031 9.65463 17.3567C9.65624 17.9071 10.8873 17.9151 10.8856 17.3647L10.8905 13.4095C10.8905 13.4095 11.2879 13.4127 12.07 13.4127C12.807 13.4127 12.807 12.2607 12.07 12.2607C11.2397 12.2607 8.46706 12.2383 8.46706 12.2383C7.7719 12.2383 7.7735 13.3679 8.46706 13.3679" fill="white"/>
</mask>
<g mask="url(#mask0_619_94334)">
<path d="M12.8085 12.2383H7.77344V17.9151H12.8085V12.2383Z" fill="#F8E049"/>
</g>
<path d="M14.141 13.5773L14.8007 15.6317H13.4265L14.141 13.5773ZM13.4024 12.6157C13.1111 13.2541 12.0571 16.2685 11.7079 17.0685C11.4553 17.6461 12.5447 18.1181 12.7973 17.5405L13.0339 16.7165H15.2014C15.2014 16.7165 15.1274 16.7501 15.4154 17.5053C15.6488 18.1165 16.7736 17.6925 16.5402 17.0813C16.2071 16.2077 15.0566 13.0621 14.8458 12.6173C14.7492 12.4109 14.4017 12.2637 14.0653 12.2637C13.787 12.2637 13.515 12.3645 13.4007 12.6173" fill="#F8E049"/>
<mask id="mask1_619_94334" style="mask-type:luminance" maskUnits="userSpaceOnUse" x="11" y="12" width="6" height="6">
<path d="M14.141 13.5773L14.8007 15.6317H13.4265L14.141 13.5773ZM13.4024 12.6157C13.1111 13.2541 12.0571 16.2685 11.7079 17.0685C11.4553 17.6461 12.5447 18.1181 12.7973 17.5405L13.0339 16.7165H15.2014C15.2014 16.7165 15.1274 16.7501 15.4154 17.5053C15.6488 18.1165 16.7736 17.6925 16.5402 17.0813C16.2071 16.2077 15.0566 13.0621 14.8458 12.6173C14.7492 12.4109 14.4017 12.2637 14.0653 12.2637C13.787 12.2637 13.515 12.3645 13.4007 12.6173" fill="white"/>
</mask>
<g mask="url(#mask1_619_94334)">
<path d="M16.7752 12.2617H11.4553V18.1177H16.7752V12.2617Z" fill="#F8E049"/>
</g>
<path d="M16.9569 12.8045C16.9585 13.8285 16.9634 17.1309 16.9634 17.1309C16.9634 17.1309 16.8684 17.7869 17.4332 17.7869C17.9981 17.7869 19.2548 17.7805 19.8116 17.7805C20.3684 17.7805 20.3652 16.6029 19.8084 16.6029C19.2516 16.6029 18.2346 16.5965 18.2346 16.5965C18.2346 16.5965 18.2394 13.5421 18.2378 12.8013C18.2378 12.4429 17.9176 12.2637 17.5974 12.2637C17.2772 12.2637 16.9553 12.4445 16.9553 12.8045" fill="#F8E049"/>
<mask id="mask2_619_94334" style="mask-type:luminance" maskUnits="userSpaceOnUse" x="16" y="12" width="5" height="6">
<path d="M16.9569 12.8045C16.9585 13.8285 16.9634 17.1309 16.9634 17.1309C16.9634 17.1309 16.8684 17.7869 17.4332 17.7869C17.9981 17.7869 19.2548 17.7805 19.8116 17.7805C20.3684 17.7805 20.3652 16.6029 19.8084 16.6029C19.2516 16.6029 18.2346 16.5965 18.2346 16.5965C18.2346 16.5965 18.2394 13.5421 18.2378 12.8013C18.2378 12.4429 17.9176 12.2637 17.5974 12.2637C17.2772 12.2637 16.9553 12.4445 16.9553 12.8045" fill="white"/>
</mask>
<g mask="url(#mask2_619_94334)">
<path d="M20.3683 12.2637H16.8667V17.7869H20.3683V12.2637Z" fill="#F8E049"/>
</g>
<path d="M20.5164 12.6413C20.5293 13.0909 20.502 17.1533 20.502 17.4541C20.502 17.9293 21.7185 17.9277 21.7185 17.4541C21.7185 16.9021 21.7185 15.8557 21.7185 15.8557L22.0757 15.5709L23.6366 17.6893C23.952 18.1037 24.9465 17.3549 24.6311 16.9405L22.972 14.7677C22.972 14.7677 24.0985 13.5565 24.541 13.1181C24.8001 12.8621 23.9987 12.0589 23.7396 12.3165C23.4886 12.5645 21.7249 14.3197 21.7249 14.3197C21.7249 14.3197 21.741 13.2173 21.7249 12.6077C21.7185 12.3757 21.4337 12.2637 21.1408 12.2637C20.8286 12.2637 20.5084 12.3917 20.5148 12.6397" fill="#F8E049"/>
<mask id="mask3_619_94334" style="mask-type:luminance" maskUnits="userSpaceOnUse" x="20" y="12" width="5" height="6">
<path d="M20.5164 12.6413C20.5293 13.0909 20.502 17.1533 20.502 17.4541C20.502 17.9293 21.7185 17.9277 21.7185 17.4541C21.7185 16.9021 21.7185 15.8557 21.7185 15.8557L22.0757 15.5709L23.6366 17.6893C23.952 18.1037 24.9465 17.3549 24.6311 16.9405L22.972 14.7677C22.972 14.7677 24.0985 13.5565 24.541 13.1181C24.8001 12.8621 23.9987 12.0589 23.7396 12.3165C23.4886 12.5645 21.7249 14.3197 21.7249 14.3197C21.7249 14.3197 21.741 13.2173 21.7249 12.6077C21.7185 12.3757 21.4337 12.2637 21.1408 12.2637C20.8286 12.2637 20.5084 12.3917 20.5148 12.6397" fill="white"/>
</mask>
<g mask="url(#mask3_619_94334)">
<path d="M24.9465 12.0625H20.502V18.1041H24.9465V12.0625Z" fill="#F8E049"/>
</g>
</g>
<defs>
<clipPath id="clip0_619_94334">
<rect width="32" height="32" fill="white" transform="translate(0.5 0.5)"/>
</clipPath>
</defs>
</svg>
