<svg width="24" height="24" viewBox="0 0 24 24" fill="none" xmlns="http://www.w3.org/2000/svg">
<path d="M2.44268 14.378C1.76348 13.5069 1.91904 12.2502 2.79011 11.571L13.8307 2.9625C14.7017 2.28331 15.9585 2.43886 16.6377 3.30994L17.5318 4.45671C17.7415 4.72563 17.8029 5.08156 17.6955 5.40519C17.2369 6.78662 18.3311 8.19007 19.7827 8.08209C20.1228 8.0568 20.453 8.20313 20.6627 8.47206L21.5568 9.61883C22.236 10.4899 22.0805 11.7466 21.2094 12.4258L10.1688 21.0343C9.29775 21.7135 8.04101 21.558 7.36182 20.6869L6.46766 19.5401C6.25798 19.2712 6.19657 18.9153 6.30401 18.5916C6.76264 17.2102 5.66835 15.8068 4.21679 15.9147C3.87672 15.94 3.54651 15.7937 3.33683 15.5248L2.44268 14.378Z" fill="#4876EF"/>
<path d="M12.3477 9.19141L14.8072 12.3459" stroke="#D1E6FF" stroke-width="2" stroke-linecap="round" stroke-dasharray="4 20"/>
</svg>
