<svg width="24" height="24" viewBox="0 0 24 24" fill="none" xmlns="http://www.w3.org/2000/svg">
<path d="M11 15L14 12M14 12L11 9M14 12L5 12M9.15224 18.7654C9.35523 19.2554 9.74432 19.6448 10.2344 19.8478C10.6019 20 11.0681 20 12 20H16.8C17.9201 20 18.48 20 18.9078 19.782C19.2841 19.5902 19.5905 19.2844 19.7822 18.908C20.0002 18.4802 20 17.9201 20 16.8V7.19995C20 6.07985 20.0002 5.51986 19.7822 5.09204C19.5905 4.71572 19.2841 4.40973 18.9078 4.21799C18.48 4 17.9201 4 16.8 4H12C11.0681 4 10.6019 4 10.2344 4.15224C9.74432 4.35523 9.35523 4.74456 9.15224 5.23462" stroke="#B4C0D3" stroke-width="2" stroke-linecap="round" stroke-linejoin="round"/>
</svg>
