<svg width="336" height="56" viewBox="0 0 336 56" fill="none" xmlns="http://www.w3.org/2000/svg">
<rect width="336" height="56" rx="8" fill="#1877F2"/>
<g clip-path="url(#clip0_619_102665)">
<path d="M40 28C40 21.3726 34.6274 16 28 16C21.3726 16 16 21.3726 16 28C16 33.9895 20.3882 38.954 26.125 39.8542V31.4688H23.0781V28H26.125V25.3563C26.125 22.3488 27.9166 20.6875 30.6576 20.6875C31.9701 20.6875 33.3438 20.9219 33.3438 20.9219V23.875H31.8306C30.34 23.875 29.875 24.8001 29.875 25.75V28H33.2031L32.6711 31.4688H29.875V39.8542C35.6118 38.954 40 33.9895 40 28Z" fill="white"/>
</g>
<path d="M102.781 21.2656V35.3906H101.125V21.2656H102.781ZM90.3594 30.625H91.6406V24.3438H90.6406V22.9375H97.1094V24.3438H96.1094V30.4375C96.5547 30.3984 96.9766 30.3516 97.375 30.2969L97.4844 31.5625C95.2578 32.0156 92.3516 32.0703 90.5625 32.0625L90.3594 30.625ZM93.2031 30.5938C93.6328 30.5859 94.0781 30.5703 94.5156 30.5469V24.3438H93.2031V30.5938ZM96.75 28.0312V26.4844H98.3125V21.5625H99.9688V34.6875H98.3125V28.0312H96.75ZM116.094 21.2656V35.4062H114.344V21.2656H116.094ZM104.797 27.2812C104.789 24.2344 106.344 22.2969 108.484 22.2969C110.602 22.2969 112.164 24.2344 112.172 27.2812C112.164 30.3516 110.602 32.2812 108.484 32.2812C106.344 32.2812 104.789 30.3516 104.797 27.2812ZM106.469 27.2812C106.469 29.4531 107.289 30.7109 108.484 30.7188C109.672 30.7109 110.484 29.4531 110.484 27.2812C110.484 25.125 109.672 23.8594 108.484 23.8594C107.289 23.8594 106.469 25.125 106.469 27.2812ZM125.469 23.2031C125.469 25.3828 127.602 27.5781 130.562 28.0938L129.781 29.5469C127.414 29.0547 125.477 27.6172 124.555 25.7188C123.625 27.6016 121.688 29.0469 119.328 29.5469L118.562 28.0938C121.477 27.5625 123.617 25.375 123.625 23.2031V22.1562H125.469V23.2031ZM118.172 33.5938V32.1562H131.078V33.5938H118.172ZM144.875 28.0625V29.4375H139.281V30.7969H143.297V35.3906H141.562V32.2031H133.422V30.7969H137.562V29.4375H132V28.0625H144.875ZM133.672 27.0156V21.6094H135.391V23.0156H141.484V21.6094H143.203V27.0156H133.672ZM135.391 25.625H141.484V24.3125H135.391V25.625ZM152.25 22.0625C155.227 22.0625 157.523 23.6484 157.516 26.0469C157.523 28.4766 155.227 30.0625 152.25 30.0625C149.289 30.0625 147.008 28.4766 147.016 26.0469C147.008 23.6484 149.289 22.0625 152.25 22.0625ZM145.828 33.6094V32.1875H158.734V33.6094H145.828ZM148.688 26.0469C148.68 27.6484 150.195 28.6328 152.25 28.6406C154.312 28.6328 155.812 27.6484 155.812 26.0469C155.812 24.4844 154.312 23.4531 152.25 23.4688C150.195 23.4531 148.68 24.4844 148.688 26.0469ZM172.562 32.3125V33.75H159.656V32.3125H165.219V30.0156H161.188V25.3906H169.312V23.6406H161.156V22.2344H171.031V26.7656H162.922V28.5938H171.359V30.0156H166.938V32.3125H172.562ZM190.188 32.3125V33.75H177.281V32.3125H182.844V30.0156H178.812V25.3906H186.938V23.6406H178.781V22.2344H188.656V26.7656H180.547V28.5938H188.984V30.0156H184.562V32.3125H190.188ZM202.344 22.6406V24.2344C202.344 26.125 202.344 28.0703 201.828 31.0469L200.062 30.8906C200.609 28.1172 200.609 26.0703 200.609 24.2344V24.0469H192.469V22.6406H202.344ZM191.109 33.4531V32.0312H203.984V33.4531H191.109ZM216.703 21.2812V31.4844H214.953V21.2812H216.703ZM205.188 25.7344C205.188 23.6797 206.852 22.2109 209 22.2031C211.148 22.2109 212.805 23.6797 212.797 25.7344C212.805 27.8203 211.148 29.2812 209 29.2812C206.852 29.2812 205.188 27.8203 205.188 25.7344ZM206.891 25.7344C206.883 26.9844 207.789 27.7656 209 27.7656C210.18 27.7656 211.094 26.9844 211.094 25.7344C211.094 24.5156 210.18 23.7188 209 23.7188C207.789 23.7188 206.883 24.5156 206.891 25.7344ZM207.359 35.1094V30.4531H209.109V33.7031H217.094V35.1094H207.359ZM229.828 21.2656V26.8906H232V28.3281H229.828V35.3906H228.109V21.2656H229.828ZM218.688 24.8281V23.4375H222.031V21.4688H223.766V23.4375H227.016V24.8281H218.688ZM219.344 29.0781C219.328 27.125 220.844 25.7422 222.906 25.75C224.938 25.7422 226.445 27.125 226.453 29.0781C226.445 31.0234 224.938 32.3906 222.906 32.3906C220.844 32.3906 219.328 31.0234 219.344 29.0781ZM221 29.0781C220.992 30.2266 221.797 30.9609 222.906 30.9531C223.992 30.9609 224.781 30.2266 224.797 29.0781C224.781 27.9297 223.992 27.1719 222.906 27.1719C221.797 27.1719 220.992 27.9297 221 29.0781ZM244.391 21.2656V35.3906H242.641V21.2656H244.391ZM232.688 31.5C236.391 29.7422 238.094 27.3516 238.406 24.1406H233.406V22.7656H240.172C240.172 26.9688 238.539 30.5391 233.594 32.8906L232.688 31.5Z" fill="white"/>
<defs>
<clipPath id="clip0_619_102665">
<rect width="24" height="24" fill="white" transform="translate(16 16)"/>
</clipPath>
</defs>
</svg>
