<svg width="336" height="56" viewBox="0 0 336 56" fill="none" xmlns="http://www.w3.org/2000/svg">
<rect width="336" height="56" rx="8" fill="#03C75A"/>
<path d="M30.9467 28.56L24.96 20H20V36H25.2V27.44L31.1733 36H36.1333V20H30.9467V28.56Z" fill="white"/>
<path d="M106.672 22.6719V30.4375C108.055 30.4219 109.32 30.3281 110.766 30.0156L111.016 31.4844C109.227 31.875 107.68 31.9375 105.891 31.9375H104.938V22.6719H106.672ZM108.906 27.2344V25.8281H111.859V21.5625H113.5V34.7188H111.859V27.2344H108.906ZM114.875 35.3906V21.2656H116.531V35.3906H114.875ZM129.922 21.2656V35.4062H128.172V21.2656H129.922ZM118.625 27.2812C118.617 24.2344 120.172 22.2969 122.312 22.2969C124.43 22.2969 125.992 24.2344 126 27.2812C125.992 30.3516 124.43 32.2812 122.312 32.2812C120.172 32.2812 118.617 30.3516 118.625 27.2812ZM120.297 27.2812C120.297 29.4531 121.117 30.7109 122.312 30.7188C123.5 30.7109 124.312 29.4531 124.312 27.2812C124.312 25.125 123.5 23.8594 122.312 23.8594C121.117 23.8594 120.297 25.125 120.297 27.2812ZM143.844 21.2656V35.4062H142.125V27.75H139.25V31.9844H132.531V22.3594H134.281V25.875H137.547V22.3594H139.25V26.3281H142.125V21.2656H143.844ZM134.281 30.5938H137.547V27.2344H134.281V30.5938ZM158.734 32.3125V33.75H145.828V32.3125H151.391V30.0156H147.359V25.3906H155.484V23.6406H147.328V22.2344H157.203V26.7656H149.094V28.5938H157.531V30.0156H153.109V32.3125H158.734ZM176.359 32.3125V33.75H163.453V32.3125H169.016V30.0156H164.984V25.3906H173.109V23.6406H164.953V22.2344H174.828V26.7656H166.719V28.5938H175.156V30.0156H170.734V32.3125H176.359ZM188.516 22.6406V24.2344C188.516 26.125 188.516 28.0703 188 31.0469L186.234 30.8906C186.781 28.1172 186.781 26.0703 186.781 24.2344V24.0469H178.641V22.6406H188.516ZM177.281 33.4531V32.0312H190.156V33.4531H177.281ZM202.875 21.2812V31.4844H201.125V21.2812H202.875ZM191.359 25.7344C191.359 23.6797 193.023 22.2109 195.172 22.2031C197.32 22.2109 198.977 23.6797 198.969 25.7344C198.977 27.8203 197.32 29.2812 195.172 29.2812C193.023 29.2812 191.359 27.8203 191.359 25.7344ZM193.062 25.7344C193.055 26.9844 193.961 27.7656 195.172 27.7656C196.352 27.7656 197.266 26.9844 197.266 25.7344C197.266 24.5156 196.352 23.7188 195.172 23.7188C193.961 23.7188 193.055 24.5156 193.062 25.7344ZM193.531 35.1094V30.4531H195.281V33.7031H203.266V35.1094H193.531ZM216 21.2656V26.8906H218.172V28.3281H216V35.3906H214.281V21.2656H216ZM204.859 24.8281V23.4375H208.203V21.4688H209.938V23.4375H213.188V24.8281H204.859ZM205.516 29.0781C205.5 27.125 207.016 25.7422 209.078 25.75C211.109 25.7422 212.617 27.125 212.625 29.0781C212.617 31.0234 211.109 32.3906 209.078 32.3906C207.016 32.3906 205.5 31.0234 205.516 29.0781ZM207.172 29.0781C207.164 30.2266 207.969 30.9609 209.078 30.9531C210.164 30.9609 210.953 30.2266 210.969 29.0781C210.953 27.9297 210.164 27.1719 209.078 27.1719C207.969 27.1719 207.164 27.9297 207.172 29.0781ZM230.562 21.2656V35.3906H228.812V21.2656H230.562ZM218.859 31.5C222.562 29.7422 224.266 27.3516 224.578 24.1406H219.578V22.7656H226.344C226.344 26.9688 224.711 30.5391 219.766 32.8906L218.859 31.5Z" fill="white"/>
</svg>
