<svg width="336" height="56" viewBox="0 0 336 56" fill="none" xmlns="http://www.w3.org/2000/svg">
<rect width="336" height="56" rx="8" fill="#FAE524"/>
<path fill-rule="evenodd" clip-rule="evenodd" d="M28.0028 19C22.479 19 18 22.4787 18 26.7633C18 29.4307 19.7338 31.7813 22.3679 33.1817L21.2565 37.2551C21.1564 37.6163 21.5677 37.8997 21.8844 37.6941L26.7469 34.4654C27.1581 34.5043 27.5749 34.5265 27.9972 34.5265C33.521 34.5265 38 31.0478 38 26.7633C38 22.4787 33.5265 19 28.0028 19Z" fill="#221714"/>
<path d="M111.688 22.6562C111.68 26.9219 110.516 30.5859 105.312 33.1719L104.359 31.8594C106.805 30.6562 108.266 29.2422 109.086 27.5703L104.688 27.9844L104.469 26.4844L109.609 26.1641C109.789 25.5 109.906 24.8047 109.961 24.0625H105.203V22.6562H111.688ZM113.672 35.3594V21.2656H115.406V26.7969H117.5V28.2188H115.406V35.3594H113.672ZM125.516 22.6562C125.508 26.9219 124.344 30.5859 119.141 33.1719L118.188 31.8594C120.633 30.6562 122.094 29.2422 122.914 27.5703L118.516 27.9844L118.297 26.4844L123.438 26.1641C123.617 25.5 123.734 24.8047 123.789 24.0625H119.031V22.6562H125.516ZM127.5 35.3594V21.2656H129.234V26.7969H131.328V28.2188H129.234V35.3594H127.5ZM138.422 22.0625C141.453 22.0703 143.695 23.5781 143.688 25.875C143.695 27.9922 141.875 29.4062 139.281 29.6641V32.25H144.906V33.6719H132V32.25H137.562V29.6641C135 29.4062 133.18 27.9922 133.188 25.875C133.18 23.5781 135.414 22.0703 138.422 22.0625ZM134.891 25.875C134.883 27.3984 136.359 28.3125 138.422 28.3125C140.516 28.3125 141.984 27.3984 141.984 25.875C141.984 24.3984 140.516 23.4609 138.422 23.4688C136.359 23.4609 134.883 24.3984 134.891 25.875ZM158.734 32.3125V33.75H145.828V32.3125H151.391V30.0156H147.359V25.3906H155.484V23.6406H147.328V22.2344H157.203V26.7656H149.094V28.5938H157.531V30.0156H153.109V32.3125H158.734ZM176.359 32.3125V33.75H163.453V32.3125H169.016V30.0156H164.984V25.3906H173.109V23.6406H164.953V22.2344H174.828V26.7656H166.719V28.5938H175.156V30.0156H170.734V32.3125H176.359ZM188.516 22.6406V24.2344C188.516 26.125 188.516 28.0703 188 31.0469L186.234 30.8906C186.781 28.1172 186.781 26.0703 186.781 24.2344V24.0469H178.641V22.6406H188.516ZM177.281 33.4531V32.0312H190.156V33.4531H177.281ZM202.875 21.2812V31.4844H201.125V21.2812H202.875ZM191.359 25.7344C191.359 23.6797 193.023 22.2109 195.172 22.2031C197.32 22.2109 198.977 23.6797 198.969 25.7344C198.977 27.8203 197.32 29.2812 195.172 29.2812C193.023 29.2812 191.359 27.8203 191.359 25.7344ZM193.062 25.7344C193.055 26.9844 193.961 27.7656 195.172 27.7656C196.352 27.7656 197.266 26.9844 197.266 25.7344C197.266 24.5156 196.352 23.7188 195.172 23.7188C193.961 23.7188 193.055 24.5156 193.062 25.7344ZM193.531 35.1094V30.4531H195.281V33.7031H203.266V35.1094H193.531ZM216 21.2656V26.8906H218.172V28.3281H216V35.3906H214.281V21.2656H216ZM204.859 24.8281V23.4375H208.203V21.4688H209.938V23.4375H213.188V24.8281H204.859ZM205.516 29.0781C205.5 27.125 207.016 25.7422 209.078 25.75C211.109 25.7422 212.617 27.125 212.625 29.0781C212.617 31.0234 211.109 32.3906 209.078 32.3906C207.016 32.3906 205.5 31.0234 205.516 29.0781ZM207.172 29.0781C207.164 30.2266 207.969 30.9609 209.078 30.9531C210.164 30.9609 210.953 30.2266 210.969 29.0781C210.953 27.9297 210.164 27.1719 209.078 27.1719C207.969 27.1719 207.164 27.9297 207.172 29.0781ZM230.562 21.2656V35.3906H228.812V21.2656H230.562ZM218.859 31.5C222.562 29.7422 224.266 27.3516 224.578 24.1406H219.578V22.7656H226.344C226.344 26.9688 224.711 30.5391 219.766 32.8906L218.859 31.5Z" fill="#47494E"/>
</svg>
