<svg width="336" height="56" viewBox="0 0 336 56" fill="none" xmlns="http://www.w3.org/2000/svg">
<rect x="0.5" y="0.5" width="335" height="55" rx="7.5" fill="white"/>
<rect x="0.5" y="0.5" width="335" height="55" rx="7.5" stroke="#EAEDF4"/>
<path d="M38.5647 28.2529C38.5647 27.5052 38.504 26.7534 38.3747 26.0178H27.9995V30.2536H33.9409C33.6943 31.6197 32.9022 32.8282 31.7422 33.5961V36.3445H35.2868C37.3683 34.4287 38.5647 31.5995 38.5647 28.2529Z" fill="#4285F4"/>
<path d="M27.9995 39C30.9661 39 33.4679 38.0259 35.2908 36.3446L31.7462 33.5962C30.76 34.2671 29.4868 34.647 28.0035 34.647C25.1339 34.647 22.7007 32.711 21.8277 30.1082H18.1699V32.9414C20.0372 36.6558 23.8405 39 27.9995 39Z" fill="#34A853"/>
<path d="M21.8238 30.1082C21.3631 28.7421 21.3631 27.2629 21.8238 25.8967V23.0635H18.1701C16.61 26.1716 16.61 29.8334 18.1701 32.9415L21.8238 30.1082Z" fill="#FBBC04"/>
<path d="M27.9995 21.3537C29.5677 21.3295 31.0833 21.9196 32.219 23.0027L35.3595 19.8623C33.3709 17.995 30.7317 16.9684 27.9995 17.0007C23.8405 17.0007 20.0372 19.345 18.1699 23.0634L21.8237 25.8966C22.6926 23.2897 25.1298 21.3537 27.9995 21.3537Z" fill="#EA4335"/>
<path d="M122.555 22.125V23.3906C122.547 24.7109 122.547 26.1562 122.18 28.1562H124.133V29.5625H118.523V35.4062H116.773V29.5625H111.258V28.1562H120.414C120.805 26.2344 120.82 24.7891 120.82 23.5312H112.773V22.125H122.555ZM136.414 21.8594V22.7969C136.422 23.7188 136.422 24.8906 136.125 26.3594H137.992V27.7344H125.086V26.3594H134.375C134.633 25.0703 134.672 24.0703 134.68 23.2344H126.68V21.8594H136.414ZM126.57 30.2188V28.8594H136.398V32.6875H128.32V33.8906H136.758V35.25H126.586V31.3594H134.664V30.2188H126.57ZM151.82 32.3125V33.75H138.914V32.3125H144.477V30.0156H140.445V25.3906H148.57V23.6406H140.414V22.2344H150.289V26.7656H142.18V28.5938H150.617V30.0156H146.195V32.3125H151.82ZM169.445 32.3125V33.75H156.539V32.3125H162.102V30.0156H158.07V25.3906H166.195V23.6406H158.039V22.2344H167.914V26.7656H159.805V28.5938H168.242V30.0156H163.82V32.3125H169.445ZM181.602 22.6406V24.2344C181.602 26.125 181.602 28.0703 181.086 31.0469L179.32 30.8906C179.867 28.1172 179.867 26.0703 179.867 24.2344V24.0469H171.727V22.6406H181.602ZM170.367 33.4531V32.0312H183.242V33.4531H170.367ZM195.961 21.2812V31.4844H194.211V21.2812H195.961ZM184.445 25.7344C184.445 23.6797 186.109 22.2109 188.258 22.2031C190.406 22.2109 192.062 23.6797 192.055 25.7344C192.062 27.8203 190.406 29.2812 188.258 29.2812C186.109 29.2812 184.445 27.8203 184.445 25.7344ZM186.148 25.7344C186.141 26.9844 187.047 27.7656 188.258 27.7656C189.438 27.7656 190.352 26.9844 190.352 25.7344C190.352 24.5156 189.438 23.7188 188.258 23.7188C187.047 23.7188 186.141 24.5156 186.148 25.7344ZM186.617 35.1094V30.4531H188.367V33.7031H196.352V35.1094H186.617ZM209.086 21.2656V26.8906H211.258V28.3281H209.086V35.3906H207.367V21.2656H209.086ZM197.945 24.8281V23.4375H201.289V21.4688H203.023V23.4375H206.273V24.8281H197.945ZM198.602 29.0781C198.586 27.125 200.102 25.7422 202.164 25.75C204.195 25.7422 205.703 27.125 205.711 29.0781C205.703 31.0234 204.195 32.3906 202.164 32.3906C200.102 32.3906 198.586 31.0234 198.602 29.0781ZM200.258 29.0781C200.25 30.2266 201.055 30.9609 202.164 30.9531C203.25 30.9609 204.039 30.2266 204.055 29.0781C204.039 27.9297 203.25 27.1719 202.164 27.1719C201.055 27.1719 200.25 27.9297 200.258 29.0781ZM223.648 21.2656V35.3906H221.898V21.2656H223.648ZM211.945 31.5C215.648 29.7422 217.352 27.3516 217.664 24.1406H212.664V22.7656H219.43C219.43 26.9688 217.797 30.5391 212.852 32.8906L211.945 31.5Z" fill="#475067"/>
</svg>
