<?xml version="1.0" encoding="utf-8"?>
<!-- Generator: Adobe Illustrator 16.0.0, SVG Export Plug-In . SVG Version: 6.00 Build 0)  -->
<!DOCTYPE svg PUBLIC "-//W3C//DTD SVG 1.1//EN" "http://www.w3.org/Graphics/SVG/1.1/DTD/svg11.dtd">
<svg version="1.1" id="Layer_1" xmlns="http://www.w3.org/2000/svg" xmlns:xlink="http://www.w3.org/1999/xlink" x="0px" y="0px"
	 width="64px" height="64px" viewBox="0 0 64 64" enable-background="new 0 0 64 64" xml:space="preserve">
<circle fill="#4DA3DA" cx="32" cy="32" r="32"/>
<g>
	<g>
		<g>
			<path fill="#FFFFFF" stroke="#FFFFFF" stroke-width="0.25" d="M46.023,48.507c-0.089,0.089-0.196,0.134-0.321,0.134
				s-0.232-0.045-0.321-0.134s-0.134-0.196-0.134-0.321s0.045-0.232,0.134-0.321s0.196-0.134,0.321-0.134s0.232,0.045,0.321,0.134
				s0.134,0.196,0.134,0.321S46.112,48.418,46.023,48.507z M45.434,47.915c-0.074,0.074-0.11,0.164-0.11,0.271
				c0,0.105,0.036,0.195,0.11,0.271c0.074,0.074,0.163,0.112,0.269,0.112c0.104,0,0.195-0.038,0.269-0.112
				c0.073-0.075,0.11-0.165,0.11-0.271c0-0.106-0.037-0.196-0.11-0.271c-0.073-0.075-0.164-0.112-0.269-0.112
				C45.597,47.803,45.508,47.84,45.434,47.915z M45.845,48.369c-0.033,0.033-0.08,0.05-0.138,0.05c-0.065,0-0.117-0.022-0.155-0.068
				c-0.038-0.045-0.058-0.1-0.058-0.163s0.02-0.118,0.058-0.163c0.038-0.046,0.09-0.067,0.155-0.067
				c0.059,0,0.105,0.017,0.141,0.053c0.034,0.035,0.056,0.068,0.063,0.101h-0.112c-0.004-0.01-0.012-0.022-0.025-0.037
				s-0.035-0.021-0.064-0.021c-0.034,0-0.063,0.013-0.081,0.039c-0.02,0.027-0.028,0.059-0.028,0.097
				c0,0.037,0.01,0.069,0.029,0.096s0.046,0.039,0.08,0.039c0.026,0,0.046-0.007,0.061-0.021c0.016-0.014,0.023-0.026,0.028-0.037
				h0.113C45.902,48.301,45.88,48.336,45.845,48.369z"/>
		</g>
		<image overflow="visible" width="13" height="16" xlink:href="111D0DE5.png"  transform="matrix(0.24 0 0 0.24 26.0166 48.8525)">
		</image>
		<path fill="#FFFFFF" d="M29.686,54.115H28.51l1.14-5.263h1.357c0.716,0,1.224,0.169,1.525,0.506
			c0.3,0.335,0.379,0.825,0.241,1.468c-0.127,0.586-0.388,1.022-0.784,1.308c-0.396,0.284-0.933,0.427-1.611,0.427
			c-0.097,0-0.169-0.001-0.218-0.002s-0.093-0.004-0.136-0.007L29.686,54.115z M30.714,49.366l-0.579,2.673
			c0.396-0.005,0.703-0.11,0.918-0.315c0.214-0.203,0.374-0.542,0.476-1.015c0.103-0.476,0.09-0.817-0.037-1.024
			C31.366,49.479,31.106,49.372,30.714,49.366z"/>
		<polygon fill="#FFF100" points="25.532,47.102 25.079,49.203 26.982,48.002 		"/>
		<polygon fill="#FFFFFF" points="25.003,49.682 24.383,52.562 25.505,52.562 26.304,48.853 		"/>
		<path fill="#FFFFFF" d="M33.205,49.889c0.458-0.975,1.128-1.053,1.658-1.053c0.601,0,1.006,0.087,1.216,0.262
			c0.211,0.176,0.316,0.431,0.316,0.765c0,0.224-0.054,0.591-0.159,1.101c-0.098,0.484-0.146,0.82-0.146,1.011
			c0,0.161,0.054,0.396,0.104,0.563h-1.143c-0.027-0.14-0.07-0.347-0.07-0.476c-0.308,0.325-0.65,0.488-1.027,0.488
			c-0.386,0-0.664-0.104-0.832-0.314c-0.17-0.21-0.254-0.453-0.254-0.729c0-0.314,0.075-0.554,0.227-0.719
			c0.15-0.166,0.336-0.277,0.557-0.337c0.222-0.06,0.522-0.111,0.905-0.155c0.339-0.043,0.563-0.021,0.678-0.062
			c0.022-0.105,0.035-0.247,0.035-0.304c0.009-0.845-1.065-0.583-1.343,0.083L33.205,49.889z M35.118,50.834
			c-0.538,0.105-0.869,0.239-0.964,0.319c-0.094,0.081-0.141,0.175-0.141,0.284c0,0.115,0.032,0.204,0.101,0.27
			c0.066,0.065,0.153,0.099,0.259,0.099c0.148,0,0.303-0.049,0.447-0.188C34.966,51.479,35.069,51.176,35.118,50.834z"/>
		<path fill="#FFFFFF" d="M38.234,49.905h0.577l0.207-0.912h-0.604l0.214-1.093l-1.271,0.739l-0.068,0.354h-0.045l0,0h-0.43
			l-0.2,0.912h0.496l-0.255,1.31c-0.057,0.292-0.085,0.47-0.085,0.537c-0.001,0.202,0.063,0.388,0.195,0.556
			c0.13,0.168,0.354,0.248,0.672,0.241c0.16-0.004,0.41-0.036,0.752-0.095l0.177-0.914c-0.179,0.043-0.296,0.065-0.351,0.066
			c-0.177,0.004-0.265-0.069-0.263-0.219c0-0.056,0.008-0.109,0.022-0.16L38.234,49.905z"/>
		<path fill="#FFFFFF" d="M45.663,49.113c-0.136-0.172-0.346-0.257-0.63-0.254c-0.453,0.002-0.833,0.182-1.137,0.538l-0.012-0.013
			l0.318-1.482h-1.21l-0.999,4.654h1.218l0.327-1.51c0.078-0.37,0.188-0.654,0.326-0.851c0.139-0.197,0.297-0.297,0.477-0.298
			c0.158-0.001,0.234,0.101,0.228,0.305c-0.002,0.061-0.047,0.303-0.136,0.724l-0.346,1.63H45.3l0.411-1.937
			c0.092-0.438,0.141-0.731,0.146-0.88C45.864,49.494,45.8,49.284,45.663,49.113z"/>
		<path fill="#FFFFFF" d="M41.993,51.56c-0.229,0.324-0.491,0.57-0.789,0.74c-0.297,0.171-0.618,0.256-0.961,0.256
			c-0.527,0-0.918-0.171-1.172-0.514c-0.253-0.343-0.316-0.786-0.189-1.334c0.128-0.548,0.405-0.998,0.83-1.347
			s0.901-0.522,1.43-0.522c0.363,0,0.652,0.075,0.86,0.225c0.21,0.15,0.336,0.372,0.376,0.665l-0.783,0.301
			c-0.006-0.216-0.055-0.303-0.145-0.411c-0.091-0.108-0.221-0.163-0.389-0.163c-0.253,0-0.474,0.113-0.66,0.339
			c-0.188,0.228-0.332,0.479-0.432,0.91c-0.108,0.462-0.122,0.657-0.058,0.868c0.066,0.21,0.223,0.315,0.474,0.315
			c0.186,0,0.368-0.063,0.551-0.192c0.183-0.128,0.332-0.224,0.451-0.441L41.993,51.56z"/>
		<path fill="#FFFFFF" d="M18.901,52.543l1.279-6.117l1.835-0.022c0.536-0.007,0.96,0.032,1.271,0.115
			c0.311,0.084,0.577,0.224,0.801,0.422c0.326,0.285,0.552,0.648,0.676,1.088s0.134,0.908,0.03,1.405
			c-0.1,0.477-0.275,0.921-0.527,1.333c-0.252,0.412-0.566,0.769-0.943,1.072c-0.271,0.213-0.574,0.377-0.906,0.495
			c-0.332,0.115-0.675,0.176-1.03,0.18L18.901,52.543z M21.53,47.308l-0.932,4.316l0.524-0.005c0.5-0.007,0.927-0.127,1.281-0.519
			c0.354-0.391,0.606-0.942,0.755-1.656c0.15-0.715,0.127-1.264-0.066-1.65c-0.193-0.386-0.541-0.498-1.039-0.493L21.53,47.308z"/>
	</g>
	<path fill="#FFFFFF" d="M38.862,17.934c-0.175,0-0.327,0.05-0.462,0.149c-0.134,0.1-0.2,0.218-0.2,0.356
		c0,0.325,0.305,0.511,0.914,0.558c0.004-0.313,0.006-0.494,0.006-0.543c0-0.239-0.017-0.385-0.051-0.439
		C39.035,17.96,38.967,17.934,38.862,17.934z M45.159,44.354c-1.144-0.14-1.874-0.446-2.19-0.918
		c-0.318-0.474-0.478-1.603-0.478-3.387l0.138-11.577l0.055-18.638h-7.237c-1.334,0-2.125,0.04-2.371,0.118
		c-0.247,0.079-0.37,0.266-0.37,0.562c0,0.384,0.356,0.629,1.069,0.733c1.06,0.175,1.709,0.406,1.946,0.695
		c0.238,0.289,0.384,1.275,0.439,2.96c0.054,1.686,0.082,5.055,0.082,10.105c-0.786-0.787-1.648-1.378-2.589-1.772
		c-0.941-0.394-1.969-0.59-3.083-0.59c-2.959,0-5.645,1.159-8.055,3.478s-3.616,5.28-3.616,8.885c0,3.291,1.055,5.977,3.164,8.06
		c2.109,2.082,4.562,3.124,7.356,3.124c1.498,0,2.813-0.334,3.945-1c1.132-0.666,2.091-1.674,2.877-3.022v3.598H45.1
		c0.711,0,1.066-0.227,1.066-0.68C46.166,44.668,45.83,44.425,45.159,44.354z M34.729,41.665c-0.976,1.479-2.147,2.219-3.514,2.219
		c-1.424,0-2.595-0.774-3.517-2.323c-0.921-1.548-1.381-3.993-1.381-7.336c0-3.342,0.41-5.848,1.23-7.519
		c0.821-1.671,2.052-2.507,3.693-2.507c1.66,0,2.899,0.788,3.72,2.361c0.82,1.575,1.23,3.938,1.23,7.087
		C36.192,37.515,35.705,40.188,34.729,41.665z M38.151,11.354c-0.06-0.021-0.089-0.052-0.089-0.092c0-0.028,0.009-0.047,0.028-0.057
		c0.019-0.011,0.117-0.025,0.297-0.044c0.179-0.02,0.328-0.029,0.447-0.029c0.083,0,0.124,0.024,0.124,0.073
		c0,0.051-0.06,0.104-0.178,0.157c-0.393,0.179-0.59,0.438-0.59,0.775c0,0.122,0.03,0.222,0.092,0.297s0.128,0.113,0.197,0.113
		c0.09,0,0.171-0.048,0.245-0.146c0.076-0.097,0.18-0.287,0.309-0.568c0.11-0.241,0.196-0.409,0.256-0.503
		c0.062-0.094,0.147-0.174,0.261-0.24c0.113-0.065,0.233-0.098,0.357-0.098c0.153,0,0.302,0.04,0.445,0.119
		c0.145,0.08,0.264,0.199,0.358,0.359s0.141,0.347,0.141,0.562c0,0.267-0.055,0.493-0.166,0.677
		c-0.047,0.081-0.071,0.133-0.071,0.156c0,0.027,0.019,0.049,0.055,0.063c0.082,0.033,0.125,0.074,0.125,0.12
		c0,0.028-0.011,0.047-0.032,0.059c-0.021,0.012-0.115,0.021-0.283,0.028c-0.167,0.008-0.367,0.011-0.596,0.011
		c-0.089,0-0.133-0.025-0.133-0.076s0.064-0.105,0.196-0.163c0.476-0.203,0.713-0.481,0.713-0.833c0-0.123-0.032-0.227-0.095-0.313
		c-0.063-0.086-0.155-0.129-0.276-0.129c-0.101,0-0.189,0.04-0.261,0.12c-0.073,0.079-0.166,0.231-0.275,0.457
		c-0.167,0.339-0.313,0.571-0.438,0.696c-0.125,0.128-0.292,0.191-0.5,0.191c-0.239,0-0.434-0.092-0.583-0.276
		c-0.149-0.184-0.225-0.411-0.225-0.68c0-0.213,0.063-0.431,0.188-0.65c0.018-0.03,0.025-0.055,0.025-0.073
		C38.221,11.391,38.197,11.369,38.151,11.354z M40.739,23.088c-0.053,0-0.084-0.035-0.092-0.105
		c-0.013-0.108-0.043-0.181-0.089-0.22c-0.046-0.038-0.192-0.066-0.438-0.084c-0.245-0.018-0.537-0.026-0.877-0.026
		c-0.433,0-0.699,0.016-0.803,0.048c-0.103,0.031-0.178,0.107-0.225,0.229c-0.034,0.086-0.066,0.13-0.099,0.13
		c-0.052,0-0.077-0.063-0.077-0.188c0-0.352-0.014-0.637-0.042-0.855c0.185-0.08,0.392-0.126,0.621-0.138
		c-0.205-0.144-0.357-0.301-0.46-0.47c-0.102-0.168-0.153-0.349-0.153-0.542c0-0.162,0.042-0.309,0.125-0.443
		s0.182-0.224,0.296-0.271c0.114-0.048,0.277-0.072,0.487-0.072l1.27,0.029c0.174,0,0.29-0.016,0.347-0.048
		c0.058-0.032,0.095-0.099,0.111-0.201c0.017-0.085,0.049-0.128,0.103-0.128c0.055,0,0.082,0.042,0.082,0.124
		c0,0.07-0.008,0.224-0.026,0.461c-0.004,0.083-0.006,0.15-0.006,0.2c0,0.049,0.011,0.189,0.032,0.42v0.156
		c0,0.087-0.027,0.13-0.085,0.13c-0.045,0-0.076-0.039-0.091-0.118c-0.015-0.071-0.039-0.128-0.073-0.171s-0.2-0.071-0.5-0.084
		c-0.301-0.014-0.599-0.021-0.894-0.021c-0.327,0-0.551,0.026-0.673,0.078c-0.121,0.052-0.182,0.151-0.182,0.297
		c0,0.18,0.132,0.348,0.396,0.5c0.265,0.154,0.67,0.231,1.218,0.231c0.213,0,0.366-0.011,0.462-0.032
		c0.096-0.021,0.156-0.047,0.181-0.078s0.044-0.095,0.062-0.195c0.011-0.059,0.041-0.089,0.092-0.089
		c0.059,0,0.088,0.043,0.088,0.13c0,0.042-0.002,0.089-0.005,0.14c-0.02,0.204-0.027,0.314-0.027,0.331
		c0,0.306,0.011,0.556,0.03,0.751c0.005,0.032,0.007,0.057,0.007,0.076C40.832,23.049,40.801,23.088,40.739,23.088z M40.469,19.503
		c-0.264,0.245-0.575,0.366-0.935,0.366c-0.431,0-0.792-0.14-1.085-0.421c-0.292-0.28-0.438-0.631-0.438-1.05
		c0-0.395,0.134-0.694,0.398-0.901c0.265-0.206,0.517-0.31,0.757-0.31c0.076,0,0.122,0.02,0.137,0.061
		c0.015,0.04,0.022,0.17,0.022,0.39l0.019,1.377c0.062,0.002,0.107,0.003,0.135,0.003c0.302,0,0.558-0.074,0.767-0.221
		c0.21-0.147,0.314-0.345,0.314-0.595c0-0.256-0.111-0.508-0.335-0.755c-0.045-0.051-0.067-0.087-0.067-0.108
		c0-0.055,0.03-0.083,0.089-0.083c0.047,0,0.132,0.064,0.253,0.19c0.121,0.127,0.212,0.283,0.274,0.467
		c0.062,0.185,0.092,0.375,0.092,0.572C40.865,18.919,40.733,19.258,40.469,19.503z M40.184,15.641
		c0.396,0.167,0.61,0.262,0.639,0.285s0.043,0.047,0.043,0.07c0,0.045-0.055,0.092-0.165,0.14c-0.181,0.079-0.386,0.173-0.617,0.286
		l-1.432,0.698c-0.176,0.087-0.285,0.151-0.327,0.191s-0.069,0.094-0.082,0.161c-0.015,0.081-0.048,0.121-0.099,0.121
		c-0.058,0-0.086-0.043-0.086-0.13c0-0.053,0.007-0.148,0.02-0.286c0.009-0.104,0.015-0.2,0.015-0.289
		c0-0.113-0.01-0.275-0.026-0.49c-0.006-0.062-0.008-0.11-0.008-0.146c0-0.095,0.031-0.143,0.094-0.143
		c0.052,0,0.082,0.046,0.091,0.139c0.011,0.112,0.061,0.168,0.148,0.168c0.076,0,0.585-0.226,1.527-0.679
		c-0.588-0.25-0.952-0.376-1.095-0.376c-0.107,0-0.221,0.03-0.343,0.09c-0.121,0.061-0.198,0.144-0.229,0.25
		c-0.021,0.069-0.058,0.104-0.106,0.104c-0.059,0-0.087-0.039-0.087-0.118c0-0.025,0.003-0.068,0.009-0.131
		c0.017-0.173,0.025-0.364,0.025-0.572c0-0.085-0.009-0.202-0.025-0.35c-0.006-0.059-0.009-0.107-0.009-0.143
		c0-0.074,0.03-0.111,0.089-0.111c0.051,0,0.083,0.038,0.096,0.115c0.02,0.127,0.071,0.19,0.155,0.19
		c0.071,0,0.156-0.022,0.257-0.066c0.405-0.181,0.81-0.36,1.213-0.538c-0.177-0.079-0.454-0.184-0.833-0.313
		c-0.378-0.13-0.584-0.195-0.618-0.195c-0.09,0-0.145,0.066-0.161,0.197c-0.015,0.099-0.051,0.149-0.107,0.149
		c-0.06,0-0.09-0.039-0.09-0.118c0-0.032,0.003-0.071,0.01-0.118c0.016-0.088,0.024-0.165,0.024-0.229
		c0-0.066-0.007-0.151-0.02-0.255c-0.01-0.074-0.015-0.117-0.015-0.127c0-0.07,0.033-0.105,0.098-0.105
		c0.041,0,0.073,0.037,0.096,0.109c0.023,0.079,0.066,0.147,0.13,0.205c0.065,0.059,0.205,0.123,0.42,0.193l1.763,0.647
		c0.201,0.066,0.302,0.128,0.302,0.187c0,0.048-0.052,0.095-0.155,0.141l-1.454,0.666l-0.168,0.073L40.184,15.641z"/>
</g>
</svg>
