<svg width="156" height="24" viewBox="0 0 156 24" fill="none" xmlns="http://www.w3.org/2000/svg">
<g clip-path="url(#clip0_710_73586)">
<path d="M28.2064 1.73667L21.9057 19.7778C21.4552 21.0651 21.1853 21.9463 21.0961 22.4236C21.0047 22.9009 21.0184 23.392 21.135 23.8968L13.4942 23.9427L13.652 22.4672C13.0917 23.0432 12.5497 23.4356 12.0282 23.6421C11.5045 23.8509 10.7361 23.9565 9.72526 23.9633L3.99408 23.9978C2.32915 24.0069 1.26799 23.766 0.810594 23.2703C0.360058 22.8504 0.0947682 22.302 0.0170108 21.6204C-0.015007 21.2762 -0.00128509 20.9137 0.0536025 20.535C0.110777 20.1564 0.220552 19.7296 0.387502 19.2523L2.86659 12.1547C3.35829 10.748 4.13129 9.6374 5.18559 8.82736C6.23989 8.01732 7.43827 7.60657 8.77616 7.59739L15.3878 7.55838C16.7166 7.5515 17.453 8.05404 17.5993 9.06831L18.704 5.90388C19.1568 4.60507 19.4175 3.73537 19.4861 3.29249C19.5913 2.80601 19.5867 2.30347 19.4747 1.78715L28.2087 1.73438L28.2064 1.73667ZM9.84418 20.8724L11.6738 20.8609C12.3713 20.8563 12.8973 20.7048 13.2586 20.4065C13.6177 20.1059 13.947 19.5345 14.2398 18.6901L16.3689 12.5953L16.4376 12.4002C16.5839 11.978 16.6663 11.6958 16.6823 11.5558C16.6983 11.4135 16.6594 11.2598 16.5656 11.0945C16.4719 10.927 16.3415 10.8123 16.1723 10.748C16.0053 10.6838 15.7309 10.654 15.349 10.654L13.1283 10.6677C12.5405 10.67 12.058 10.8261 11.6806 11.1313C11.3033 11.4365 11.0014 11.9092 10.7796 12.5471L8.48114 19.1307C8.26159 19.7594 8.25015 20.2138 8.44455 20.4914C8.64809 20.7507 9.11463 20.8769 9.84418 20.8724Z" fill="black"/>
<path d="M45.9134 7.3812L45.2067 11.3189C44.8659 11.0183 44.4726 10.8049 44.0289 10.6787C43.5852 10.5525 42.986 10.4905 42.2359 10.4951L37.3532 10.5227C36.4727 10.5273 35.8255 10.6649 35.4184 10.9334C35.0113 11.2019 34.6751 11.709 34.4144 12.4571L32.1274 19.0063C31.8964 19.6671 31.8987 20.1261 32.1343 20.3854C32.3881 20.6217 32.9668 20.7365 33.8701 20.7319L38.4578 20.7044C39.2514 20.6998 39.9055 20.6332 40.4155 20.507C40.9277 20.3785 41.5407 20.1307 42.2565 19.7589L40.1822 23.7862L28.1321 23.8573C27.8919 23.8573 27.1487 23.7976 25.8977 23.676C24.9532 23.4879 24.3014 22.983 23.94 22.1638C23.581 21.3446 23.5878 20.3992 23.9606 19.3275L26.5518 11.9041C27.0663 10.4309 27.9285 9.32483 29.1361 8.58134C30.3459 7.84014 31.837 7.46381 33.6117 7.45234L45.9065 7.37891L45.9134 7.3812Z" fill="black"/>
<path d="M64.8511 7.27497L63.7693 10.3728L56.945 10.4142L54.2829 18.0372C54.0245 18.7738 53.8781 19.2649 53.8393 19.515C53.8004 19.7629 53.8393 19.9854 53.9582 20.1805C54.1732 20.4719 54.7746 20.6119 55.7649 20.6073L57.9535 20.5958C59.3669 20.5867 60.5538 20.2883 61.5075 19.6986L59.4995 23.6776L50.9622 23.7281C49.2973 23.7396 48.1424 23.6616 47.4975 23.4987C46.8548 23.3357 46.354 22.9915 45.9995 22.4683C45.6427 21.9451 45.4895 21.3554 45.5352 20.6968C45.6176 20.0267 45.9469 18.861 46.5255 17.2065L48.8811 10.4623L46.3837 10.4761L47.4654 7.37824L49.9628 7.36447L51.136 4.0027L59.3212 3.61719L58.029 7.31628L64.8534 7.27497H64.8511Z" fill="black"/>
<path d="M74.4588 7.22465L73.7247 9.93243C74.1478 9.27843 74.5206 8.79424 74.8431 8.47528C75.1655 8.15861 75.5635 7.89471 76.0392 7.68589C76.7916 7.36693 77.7452 7.20171 78.8979 7.19712L82.9619 7.17188L81.0705 12.592C80.8144 12.2386 80.4622 11.9931 80.0139 11.86C79.5657 11.7292 78.9002 11.6649 78.0197 11.6695L76.3708 11.6787C75.4994 11.6833 74.7516 11.9059 74.1272 12.3396C73.5029 12.7756 73.0569 13.3791 72.7871 14.1478L70.9163 19.5106C70.4772 20.7681 70.2096 21.6401 70.1159 22.1266C70.0221 22.6131 70.0335 23.111 70.1502 23.6181L60.7461 23.6732C61.2058 23.1615 61.5648 22.6567 61.8233 22.1518C62.0817 21.647 62.4225 20.7842 62.8501 19.5611L65.702 11.3919C66.148 10.1137 66.4087 9.24171 66.4841 8.77818C66.5893 8.2917 66.5848 7.78916 66.4727 7.27055L74.4566 7.22236L74.4588 7.22465Z" fill="black"/>
<path d="M102.826 16.841L89.2249 16.9213L88.7538 18.2683C88.4427 19.1563 88.4016 19.7346 88.6257 20.01C88.8498 20.2831 89.4696 20.4184 90.4827 20.4116L97.7965 20.368C98.6015 20.3634 99.3219 20.2945 99.9531 20.1614C100.587 20.0283 101.129 19.8402 101.581 19.6015L99.6512 23.4521L84.9734 23.5393C83.7316 23.5462 82.8053 23.4704 82.1924 23.3121C81.5795 23.1538 81.1084 22.8531 80.7791 22.4126C80.4497 21.972 80.2805 21.3799 80.2736 20.6387C80.2668 19.8975 80.436 19.0301 80.7836 18.0342L82.6384 12.7219C83.3039 10.8173 84.2553 9.41066 85.4948 8.50884C86.7344 7.60472 88.3124 7.14577 90.2266 7.1343L100.367 7.07464C101.716 7.06775 102.675 7.14577 103.242 7.3087C103.809 7.47392 104.244 7.80895 104.545 8.31379C104.834 8.76585 104.959 9.31888 104.927 9.97517C104.895 10.6292 104.692 11.4874 104.321 12.5475L102.823 16.8387L102.826 16.841ZM95.9395 13.789L96.5592 12.0106C96.8314 11.2281 96.9137 10.7301 96.804 10.5144C96.7171 10.2987 96.3511 10.1909 95.7108 10.1955L93.099 10.2115C92.6737 10.2138 92.3878 10.2299 92.2437 10.2574C92.0973 10.285 91.9533 10.3561 91.8115 10.4708C91.6674 10.5856 91.5164 10.7852 91.3586 11.0675C91.2008 11.3497 91.0522 11.687 90.915 12.0794L90.3066 13.8234L95.9395 13.7913V13.789Z" fill="black"/>
<path d="M115.482 6.98738L115.253 8.62352C115.79 8.01541 116.314 7.5886 116.824 7.34306C117.334 7.09752 117.974 6.97132 118.747 6.96673L124.787 6.93001C125.757 6.92313 126.496 7.02639 127.003 7.23291C127.511 7.44173 127.909 7.80889 128.197 8.33667C128.485 8.86446 128.625 9.43126 128.613 10.0371C128.604 10.6429 128.437 11.4047 128.117 12.3249L125.723 19.1792C125.272 20.4689 125.002 21.35 124.913 21.8251C124.822 22.3024 124.835 22.7934 124.952 23.3006L115.548 23.3556C116.001 22.8669 116.358 22.3643 116.621 21.8503C116.881 21.334 117.229 20.4597 117.659 19.2251L120.149 12.0931C120.433 11.2808 120.511 10.737 120.385 10.4616C120.257 10.1862 119.845 10.0508 119.15 10.0554L116.669 10.0715C116.156 10.0738 115.745 10.1954 115.434 10.4363C115.143 10.6773 114.894 11.0926 114.686 11.6893L112.042 19.2596C111.603 20.5148 111.338 21.3913 111.248 21.8824C111.159 22.3758 111.166 22.8737 111.271 23.3832L101.867 23.4382C102.327 22.9265 102.686 22.4194 102.944 21.9168C103.203 21.412 103.546 20.5423 103.978 19.3077L106.83 11.1385C107.276 9.86037 107.537 8.99067 107.612 8.52484C107.713 8.04754 107.706 7.55188 107.596 7.03327L115.482 6.98738Z" fill="black"/>
<path d="M155.711 1L149.413 19.0411C148.962 20.3284 148.692 21.2119 148.603 21.6869C148.511 22.1642 148.527 22.6553 148.642 23.1624L141.001 23.2083L141.156 21.7351C140.598 22.3111 140.054 22.7035 139.533 22.91C139.009 23.1188 138.241 23.2267 137.23 23.2313L131.499 23.2657C129.834 23.2749 128.772 23.0339 128.315 22.5383C127.862 22.1206 127.599 21.5699 127.521 20.8907C127.489 20.5464 127.501 20.1839 127.558 19.8052C127.613 19.4266 127.725 18.9998 127.892 18.5225L130.369 11.4226C130.86 10.016 131.633 8.90532 132.688 8.09528C133.742 7.28524 134.94 6.87449 136.278 6.8676L142.89 6.82859C144.219 6.82171 144.955 7.32425 145.102 8.33623L146.206 5.1718C146.659 3.87299 146.92 3.00329 146.986 2.56041C147.091 2.07393 147.087 1.57139 146.975 1.05507L155.711 1.00229V1ZM137.344 20.1357L139.171 20.1265C139.869 20.1219 140.395 19.9705 140.756 19.6699C141.115 19.3715 141.442 18.7979 141.737 17.9534L143.867 11.8586L143.935 11.6636C144.082 11.2413 144.164 10.9591 144.18 10.8191C144.198 10.6768 144.157 10.5231 144.066 10.3556C143.972 10.1881 143.841 10.0733 143.672 10.0114C143.505 9.94712 143.231 9.915 142.849 9.91729L140.628 9.93106C140.04 9.93335 139.556 10.0894 139.178 10.3946C138.801 10.6998 138.499 11.1702 138.275 11.8104L135.976 18.394C135.757 19.0227 135.745 19.4771 135.94 19.7571C136.143 20.0164 136.61 20.1426 137.34 20.138L137.344 20.1357Z" fill="black"/>
</g>
<defs>
<clipPath id="clip0_710_73586">
<rect width="156" height="23" fill="white" transform="translate(0 1)"/>
</clipPath>
</defs>
</svg>
