<svg width="375" height="50" viewBox="0 0 375 50" fill="none" xmlns="http://www.w3.org/2000/svg">
<rect width="375" height="50" fill="white"/>
<path d="M341.16 24.9999C341.16 23.437 342.427 22.1699 343.99 22.1699H357.993C359.556 22.1699 360.823 23.437 360.823 24.9999V29.6733C360.823 31.2362 359.556 32.5033 357.993 32.5033H343.99C342.427 32.5033 341.16 31.2362 341.16 29.6733V24.9999Z" stroke="black" stroke-opacity="0.4"/>
<path d="M362.332 25.3369V29.3369C363.137 28.9981 363.66 28.21 363.66 27.3369C363.66 26.4638 363.137 25.6757 362.332 25.3369Z" fill="black" fill-opacity="0.4"/>
<rect x="342.66" y="23.6699" width="16.66" height="7.33333" rx="1.33333" fill="black"/>
<path fill-rule="evenodd" clip-rule="evenodd" d="M327.637 23.9375C329.852 23.9376 331.984 24.789 333.59 26.3158C333.711 26.4337 333.904 26.4322 334.023 26.3125L335.179 25.1458C335.239 25.0851 335.273 25.0028 335.272 24.9173C335.272 24.8317 335.237 24.7498 335.176 24.6898C330.961 20.6503 324.311 20.6503 320.096 24.6898C320.035 24.7498 320.001 24.8316 320 24.9172C319.999 25.0028 320.033 25.0851 320.093 25.1458L321.25 26.3125C321.369 26.4324 321.562 26.4339 321.683 26.3158C323.289 24.7889 325.42 23.9375 327.637 23.9375ZM327.637 27.7332C328.854 27.7331 330.028 28.1856 330.931 29.0028C331.053 29.1188 331.245 29.1163 331.364 28.9972L332.519 27.8305C332.579 27.7693 332.613 27.6863 332.612 27.6C332.611 27.5137 332.576 27.4314 332.514 27.3715C329.766 24.8151 325.51 24.8151 322.762 27.3715C322.7 27.4314 322.664 27.5138 322.663 27.6001C322.662 27.6864 322.696 27.7694 322.757 27.8305L323.912 28.9972C324.031 29.1163 324.223 29.1188 324.345 29.0028C325.247 28.1861 326.42 27.7337 327.637 27.7332ZM329.95 30.287C329.951 30.3735 329.917 30.4569 329.856 30.5175L327.858 32.5332C327.8 32.5924 327.72 32.6257 327.637 32.6257C327.553 32.6257 327.473 32.5924 327.415 32.5332L325.417 30.5175C325.356 30.4568 325.322 30.3734 325.323 30.2869C325.325 30.2004 325.363 30.1185 325.427 30.0605C326.703 28.9816 328.571 28.9816 329.846 30.0605C329.91 30.1185 329.948 30.2005 329.95 30.287Z" fill="black"/>
<path fill-rule="evenodd" clip-rule="evenodd" d="M313.66 22H312.66C312.108 22 311.66 22.4477 311.66 23V31.6667C311.66 32.219 312.108 32.6667 312.66 32.6667H313.66C314.212 32.6667 314.66 32.219 314.66 31.6667V23C314.66 22.4477 314.212 22 313.66 22ZM307.993 24.3333H308.993C309.546 24.3333 309.993 24.781 309.993 25.3333V31.6667C309.993 32.219 309.546 32.6667 308.993 32.6667H307.993C307.441 32.6667 306.993 32.219 306.993 31.6667V25.3333C306.993 24.781 307.441 24.3333 307.993 24.3333ZM304.327 26.6667H303.327C302.775 26.6667 302.327 27.1144 302.327 27.6667V31.6667C302.327 32.219 302.775 32.6667 303.327 32.6667H304.327C304.879 32.6667 305.327 32.219 305.327 31.6667V27.6667C305.327 27.1144 304.879 26.6667 304.327 26.6667ZM299.66 28.6667H298.66C298.108 28.6667 297.66 29.1144 297.66 29.6667V31.6667C297.66 32.219 298.108 32.6667 298.66 32.6667H299.66C300.212 32.6667 300.66 32.219 300.66 31.6667V29.6667C300.66 29.1144 300.212 28.6667 299.66 28.6667Z" fill="black"/>
<path d="M32.1846 21.9175C34.4405 21.9175 36.4034 23.5215 36.4034 27.3301V27.3447C36.4034 30.9043 34.7994 33.0137 32.1407 33.0137C30.1998 33.0137 28.7496 31.8638 28.4127 30.2451L28.398 30.1646H30.2584L30.2804 30.2378C30.5587 30.9775 31.2105 31.4609 32.1407 31.4609C33.8179 31.4609 34.5284 29.8203 34.609 27.7988C34.609 27.7183 34.6163 27.6377 34.6163 27.5571H34.4698C34.0816 28.3921 33.1588 29.1318 31.7086 29.1318C29.6798 29.1318 28.2589 27.6523 28.2589 25.6455V25.6309C28.2589 23.4849 29.8922 21.9175 32.1846 21.9175ZM32.1773 27.6816C33.3712 27.6816 34.2867 26.8174 34.2867 25.6235V25.6089C34.2867 24.4004 33.3712 23.4556 32.1993 23.4556C31.0347 23.4556 30.1046 24.3857 30.1046 25.5649V25.5796C30.1046 26.8027 30.9762 27.6816 32.1773 27.6816ZM39.4486 25.9019C38.7821 25.9019 38.284 25.3892 38.284 24.7446C38.284 24.0928 38.7821 23.5874 39.4486 23.5874C40.1224 23.5874 40.6131 24.0928 40.6131 24.7446C40.6131 25.3892 40.1224 25.9019 39.4486 25.9019ZM39.4486 31.3364C38.7821 31.3364 38.284 30.8311 38.284 30.1792C38.284 29.5273 38.7821 29.022 39.4486 29.022C40.1224 29.022 40.6131 29.5273 40.6131 30.1792C40.6131 30.8311 40.1224 31.3364 39.4486 31.3364ZM47.6207 32.75V30.7212H42.4498V29.1758C43.8195 26.7954 45.3209 24.3638 46.7565 22.1812H49.4298V29.1611H50.8507V30.7212H49.4298V32.75H47.6207ZM44.2077 29.2051H47.65V23.6899H47.5402C46.4562 25.3452 45.233 27.3008 44.2077 29.0952V29.2051ZM54.9506 32.75V24.0415H54.8261L52.1967 25.9019V24.1221L54.9579 22.1812H56.8403V32.75H54.9506Z" fill="black"/>
</svg>
