<?xml version="1.0" encoding="utf-8"?>
<!-- Generator: Adobe Illustrator 16.0.0, SVG Export Plug-In . SVG Version: 6.00 Build 0)  -->
<!DOCTYPE svg PUBLIC "-//W3C//DTD SVG 1.1//EN" "http://www.w3.org/Graphics/SVG/1.1/DTD/svg11.dtd">
<svg version="1.1" id="_레이어_1" xmlns="http://www.w3.org/2000/svg" xmlns:xlink="http://www.w3.org/1999/xlink" x="0px"
	 y="0px" width="64px" height="64px" viewBox="0 0 64 64" enable-background="new 0 0 64 64" xml:space="preserve">
<rect fill="#F4F6FA" width="64" height="64"/>
<g>
	<g>
		<path fill="#E4E8EE" d="M17.877,29.446c-0.615-2.123-0.769-4.338-0.461-6.554l0.646-4.831c0.8-6.062,5.662-10.8,11.785-11.539
			c0.523-0.062,1.046-0.092,1.569-0.092c0.554,0,1.108,0,1.662,0.092C39.2,7.262,44.031,12,44.861,18.062l0.646,4.831
			c0.277,2.185,0.123,4.431-0.461,6.554l-1.016,3.6c-0.339,1.2-0.831,2.37-1.447,3.478l-1.814,3.262
			c-0.738,1.322-1.754,2.492-2.984,3.385c-3.754,2.738-8.831,2.738-12.585,0c-1.231-0.893-2.246-2.063-2.985-3.385L20.4,36.523
			c-0.615-1.107-1.107-2.277-1.446-3.478l-1.016-3.6H17.877z"/>
		<path fill="#E4E8EE" d="M20.185,28.031c0.646,2.4,0,4.676-1.508,5.077c-1.477,0.4-3.2-1.23-3.846-3.661
			c-0.646-2.4,0-4.677,1.508-5.077C17.815,23.969,19.539,25.6,20.185,28.031z"/>
		<path fill="#E4E8EE" d="M42.646,28.031c-0.646,2.4,0,4.676,1.508,5.077c1.477,0.4,3.199-1.23,3.846-3.661
			c0.646-2.4,0-4.677-1.508-5.077C45.016,23.969,43.293,25.6,42.646,28.031z"/>
		<path fill="#E4E8EE" d="M23.662,39.692H39.2v4.399c0,1.785,1.046,3.416,2.708,4.154l17.508,7.908
			c3.969,1.784,7.076,5.076,8.615,9.139l6.923,18.276l-43.539,0.399l-43.539-0.399L-5.2,65.293c1.539-4.063,4.646-7.324,8.616-9.139
			l17.507-7.908c1.662-0.738,2.708-2.369,2.708-4.154v-4.399H23.662z"/>
	</g>
</g>
</svg>
